<?xml version="1.0" encoding="utf-8"?>
<!-- Generator: Adobe Illustrator 24.2.0, SVG Export Plug-In . SVG Version: 6.00 Build 0)  -->
<svg version="1.1" id="Layer_1" xmlns="http://www.w3.org/2000/svg" xmlns:xlink="http://www.w3.org/1999/xlink" x="0px" y="0px"
	 viewBox="0 0 1024 1024" style="enable-background:new 0 0 1024 1024;" xml:space="preserve">
<style type="text/css">
	.st0{fill:#141D2B;}
	.st1{fill:#9FEF00;}
</style>
<circle class="st0" cx="512" cy="512" r="512"/>
<g>
	<path class="st1" d="M835.8006,340.65567c0-0.12729,0.02545-0.25101,0.02545-0.37872c0-7.56448-3.12189-14.66632-8.42688-19.79233
		c-0.25775-0.25735-0.55377-0.47855-0.82422-0.72519c-0.57922-0.51633-1.15204-1.03506-1.77899-1.50406
		c-0.59509-0.45389-1.23474-0.85287-1.87439-1.25623c-0.29913-0.18738-0.56964-0.40775-0.87512-0.58438L524.15137,144.42253
		c-0.71918-0.42723-1.45117-0.82422-2.20221-1.18741c-4.47119-2.15964-9.27979-3.00377-13.95786-2.67081
		c-2.45996,0.17821-4.91992,0.6862-7.3067,1.54384c-1.77896,0.63568-3.50061,1.45634-5.12363,2.44884L197.8887,316.41119
		c-0.33414,0.19254-0.6301,0.43201-0.95152,0.63727c-0.22913,0.14362-0.4678,0.24545-0.69376,0.39661
		c-0.21957,0.14719-0.40416,0.32819-0.61737,0.48172c-0.55055,0.39502-1.07883,0.80872-1.59438,1.23953
		c-0.33733,0.28403-0.66829,0.56964-0.98653,0.8692c-0.69695,0.64124-1.35251,1.31549-1.97307,2.02039
		c-0.02864,0.03223-0.05728,0.06406-0.08592,0.09628c-4.33757,4.95255-6.87711,11.34235-6.87711,18.12476
		c0,0.14639,0.02864,0.28763,0.03183,0.43362c-0.00955,0.27408-0.04774,0.54538-0.04774,0.81985v343.19522
		c0,10.50861,5.8842,19.64435,14.54024,24.29303l297.55774,171.7937c0.40414,0.23474,0.83377,0.40381,1.2475,0.61578
		c0.31503,0.15991,0.62054,0.3139,0.93878,0.46106c1.66437,0.77454,3.37967,1.39191,5.13635,1.81555
		c0.28003,0.06799,0.56009,0.10742,0.84332,0.16626c1.85214,0.38586,3.72974,0.63489,5.6105,0.63489
		c1.88397,0,3.75839-0.24902,5.6105-0.63489c0.28326-0.05884,0.56329-0.09863,0.84332-0.16626
		c1.75671-0.42407,3.46881-1.04022,5.13635-1.81476c0.31506-0.14758,0.62695-0.30231,0.93878-0.46265
		c0.41376-0.21198,0.84332-0.38068,1.2475-0.61499l297.56091-171.7937c8.65283-4.64868,14.53705-13.78442,14.53705-24.29303
		V341.31839C835.84198,341.09561,835.80377,340.87802,835.8006,340.65567z M300.84784,329.05276l202.64041-116.99538
		c4.01297-2.31596,8.95517-2.31596,12.965,0l202.63721,116.99217c8.64331,4.98996,8.64331,17.46524,0,22.4556L516.45007,468.50012
		c-4.00983,2.31595-8.95203,2.31595-12.965,0L300.84784,351.50793C292.20453,346.51797,292.20453,334.04269,300.84784,329.05276z
		 M474.86606,773.74683c0,9.95685-10.77869,16.18036-19.40289,11.20154L253.22054,668.1825
		c-4.00342-2.31079-6.46657-6.58069-6.46657-11.2019V423.4704c0-9.95721,10.77866-16.18033,19.39972-11.20193L468.3963,529.03473
		c4.00342,2.31036,6.46976,6.58069,6.46976,11.20154V773.74683z M773.18433,656.98059c0,4.62122-2.46631,8.89111-6.46973,11.2019
		L564.47198,784.94836c-8.62103,4.97882-19.39972-1.24469-19.39972-11.20154V540.23627c0-4.62085,2.46313-8.89117,6.46655-11.20154
		l202.24261-116.76627c8.62103-4.97839,19.40289,1.24472,19.40289,11.20193V656.98059z"/>
</g>
</svg>
